<svg width="164" height="136" viewBox="0 0 164 136" fill="none" xmlns="http://www.w3.org/2000/svg">
<path d="M137 56C137 86.1907 106.761 111 69 111C31.2395 111 1 86.1907 1 56C1 25.8093 31.2395 1 69 1C106.761 1 137 25.8093 137 56Z" stroke="black" stroke-width="2"/>
<path d="M56.3867 38.8125H63.1719V75.0586C63.1719 79.957 61.6953 83.7891 58.7422 86.5547C55.8125 89.3203 51.8984 90.7031 47 90.7031C41.9141 90.7031 37.9531 89.4023 35.1172 86.8008C32.2812 84.1992 30.8633 80.5547 30.8633 75.8672H37.6133C37.6133 78.7969 38.4102 81.082 40.0039 82.7227C41.6211 84.3633 43.9531 85.1836 47 85.1836C49.7891 85.1836 52.0391 84.3047 53.75 82.5469C55.4844 80.7891 56.3633 78.3281 56.3867 75.1641V38.8125Z" fill="#930505"/>
<path d="M96.3867 15.8125H103.172V52.0586C103.172 56.957 101.695 60.7891 98.7422 63.5547C95.8125 66.3203 91.8984 67.7031 87 67.7031C81.9141 67.7031 77.9531 66.4023 75.1172 63.8008C72.2812 61.1992 70.8633 57.5547 70.8633 52.8672H77.6133C77.6133 55.7969 78.4102 58.082 80.0039 59.7227C81.6211 61.3633 83.9531 62.1836 87 62.1836C89.7891 62.1836 92.0391 61.3047 93.75 59.5469C95.4844 57.7891 96.3633 55.3281 96.3867 52.1641V15.8125Z" fill="#F46D22"/>
</svg>
